<?xml version="1.0" encoding="utf-8"?>
<!-- Generator: Adobe Illustrator 25.4.1, SVG Export Plug-In . SVG Version: 6.00 Build 0)  -->
<svg version="1.1" id="logo" xmlns="http://www.w3.org/2000/svg" xmlns:xlink="http://www.w3.org/1999/xlink" x="0px" y="0px"
	 viewBox="0 0 211.8 29.1" style="enable-background:new 0 0 211.8 29.1;" xml:space="preserve">
<style type="text/css">
	.st0{fill:#4AF48F;}
	.st1{fill:#080316;}
	.st2{fill:#FFFFFF;}
	.st3{font-family:'Nunito-ExtraLightItalic';}
	.st4{font-size:25.1742px;}
</style>
<path id="Rectángulo_70" class="st0" d="M5.2,0h19.5C27.6,0,30,2.3,30,5.2v18.6c0,2.9-2.3,5.2-5.2,5.2H5.2c-2.9,0-5.2-2.3-5.2-5.2
	V5.2C0,2.3,2.3,0,5.2,0z"/>
<g id="Grupo_67" transform="translate(5.476 4.778)">
	<g id="Grupo_65" transform="translate(0 0)">
		<path id="Trazado_19" class="st1" d="M8.9,14L8.9,14c0,2.7-1.4,3.7-3.3,3.7c-1.1-0.1-2.1-0.5-3-1.2c-0.3-0.3-0.6-0.3-0.8,0
			l-0.5,0.7c-0.1,0.2-0.1,0.5,0.1,0.7c1.2,1,2.6,1.5,4.1,1.5c2.7,0,5.1-1.5,5.1-5.5v-1.2L8.9,14z"/>
		<path id="Trazado_20" class="st1" d="M10.7,0.8c0-0.3-0.3-0.6-0.6-0.6H9.7c-0.3,0-0.4,0.2-0.6,0.4L9,1.2C8,0.4,6.8,0,5.5,0
			C2.3,0,0,2.8,0,6.1c0,3.4,2.3,6.2,5.6,6.2c1.2,0,2.3-0.4,3.3-1l1.9-1.2L10.7,0.8z M8.8,9.6c-0.9,0.6-1.9,0.9-3,1
			c-2.2,0-3.9-1.9-3.9-4.5c0-2.3,1.4-4.4,3.8-4.4c1.2,0,2.3,0.5,3.1,1.4L8.8,9.6z"/>
	</g>
	<g id="Grupo_66" transform="translate(13.402 2.639)">
		<path id="Trazado_21" class="st1" d="M0.2,7.1c0-0.1,0.1-0.2,0.2-0.3l3.5-2.6L0.2,1.6C0.1,1.6,0,1.4,0,1.3l0-1C0,0.2,0.1,0,0.3,0
			c0.1,0,0.1,0,0.2,0.1L6,3.7C6.1,3.8,6.2,3.9,6.2,4v0.1c0,0.1-0.1,0.2-0.2,0.3L0.7,8.3C0.5,8.4,0.3,8.4,0.2,8.2
			c0-0.1-0.1-0.1-0.1-0.2L0.2,7.1z"/>
	</g>
</g>
<path id="Trazado_22" class="st2" d="M50.9,19.9c0,3.9-2.4,5.4-5,5.4c-1.5,0-2.9-0.6-4-1.5c-0.2-0.2-0.2-0.4-0.1-0.7l0.5-0.7
	c0.2-0.3,0.5-0.3,0.7,0c0.8,0.7,1.8,1.2,2.9,1.2c1.8,0,3.2-1,3.2-3.7V19c-0.9,0.7-2,1-3.2,1c-3.2,0-5.4-2.7-5.4-6c0-3.3,2.2-6,5.4-6
	c1.2,0,2.4,0.4,3.4,1.2l0.2-0.5c0.1-0.2,0.2-0.4,0.5-0.4h0.3c0.3,0,0.5,0.2,0.6,0.5L50.9,19.9z M46.1,18.4c1,0,2-0.4,2.9-0.9v-6.3
	c-0.8-0.9-1.9-1.4-3-1.4c-2.3,0-3.7,2-3.7,4.3C42.3,16.5,43.9,18.4,46.1,18.4"/>
<path id="Trazado_23" class="st2" d="M59.4,8.2c2.8-0.1,5.1,2.1,5.2,4.9c0,0.1,0,0.2,0,0.3c0,0.2,0,0.5,0,0.7c0,0.3-0.2,0.5-0.5,0.5
	h-8.3c0.1,2.1,1.7,3.8,3.8,3.9c1.1,0,2.2-0.3,3.1-0.9c0.4-0.3,0.6-0.4,0.9,0.1l0.3,0.4c0.2,0.3,0.3,0.5-0.1,0.8
	c-1.2,0.9-2.7,1.3-4.2,1.3c-3.5,0-5.6-2.7-5.6-6C53.9,11,55.9,8.2,59.4,8.2 M62.8,13.2c0-1.8-1.5-3.3-3.4-3.3
	c-1.9,0-3.5,1.4-3.7,3.3H62.8z"/>
<path id="Trazado_24" class="st2" d="M72.3,8.2c2.8-0.1,5.1,2.1,5.2,4.9c0,0.1,0,0.2,0,0.3c0,0.2,0,0.5,0,0.7c0,0.3-0.2,0.5-0.5,0.5
	h-8.3c0.1,2.1,1.7,3.8,3.8,3.9c1.1,0,2.2-0.3,3.1-0.9c0.4-0.3,0.6-0.4,0.9,0.1l0.3,0.4c0.2,0.3,0.3,0.5-0.1,0.8
	c-1.2,0.9-2.7,1.3-4.2,1.3c-3.5,0-5.6-2.7-5.6-6C66.7,11,68.8,8.2,72.3,8.2 M75.7,13.2c0-1.8-1.5-3.3-3.4-3.3
	c-1.9,0-3.5,1.4-3.7,3.3H75.7z"/>
<path id="Trazado_25" class="st2" d="M80.3,3.3c0-0.3,0.3-0.5,0.5-0.5h0.7c0.3,0,0.5,0.3,0.5,0.5V13L87,9c0.2-0.2,0.4-0.3,0.7-0.3
	H89c0.2,0,0.4,0.2,0.4,0.4c0,0.1,0,0.2-0.1,0.3L84,13.7l5.7,5.7c0.2,0.1,0.2,0.4,0,0.6c-0.1,0.1-0.2,0.1-0.3,0.1H88
	c-0.2,0-0.4-0.1-0.6-0.2l-5.2-5.5v5.2c0,0.3-0.2,0.5-0.5,0.5h-0.7c-0.3,0-0.5-0.2-0.5-0.5L80.3,3.3z"/>
<path id="Trazado_26" class="st2" d="M94,8.9c-0.1-0.2-0.1-0.4,0.1-0.4h0.6c0.2,0,0.3,0.1,0.4,0.3l4.2,9.7h0l4.3-9.7
	c0-0.2,0.2-0.3,0.4-0.3h0.6c0.2,0,0.3,0.2,0.1,0.4l-5,11.1c-0.1,0.2-0.2,0.3-0.3,0.3h-0.1c-0.1,0-0.2-0.1-0.3-0.3L94,8.9z"/>
<path id="Trazado_27" class="st2" d="M106.8,4.5c0-0.5,0.4-1,1-1c0,0,0,0,0,0c0.5,0,1,0.4,1,0.9s-0.4,1-0.9,1c0,0,0,0-0.1,0
	C107.2,5.5,106.8,5,106.8,4.5 M107.2,9c0-0.2,0.2-0.4,0.4-0.4c0,0,0,0,0,0h0.3c0.2,0,0.4,0.2,0.4,0.4v10.7c0,0.2-0.1,0.3-0.3,0.4
	c0,0-0.1,0-0.1,0h-0.4c-0.2,0-0.3-0.2-0.3-0.4L107.2,9z"/>
<path id="Trazado_28" class="st2" d="M117.4,20.4c-1.5,0-3-0.6-4-1.7l-0.1,1c0,0.2-0.2,0.4-0.4,0.4c0,0,0,0,0,0h-0.1
	c-0.2,0-0.4-0.2-0.4-0.4V3.1c0-0.2,0.2-0.3,0.3-0.4h0.4c0.2,0,0.4,0.1,0.4,0.3c0,0,0,0,0,0v6.4c1.1-0.7,2.3-1.1,3.6-1.1
	c3.3,0,5.5,2.7,5.5,6C122.6,17.7,120.4,20.4,117.4,20.4 M116.9,9.4c-1.3,0-2.5,0.5-3.5,1.3v6.6c0.9,1.2,2.3,2,3.9,1.9
	c2.4,0,4.2-2.3,4.2-4.9c0.1-2.6-1.9-4.8-4.5-4.9C117,9.5,117,9.5,116.9,9.4"/>
<path id="Trazado_29" class="st2" d="M128.6,8.5c2.6-0.9,5.5,0.5,6.4,3.1c0,0.1,0.1,0.2,0.1,0.3c0.1,0.4,0.3,1.1-0.1,1.2l-8.7,2.8
	c0.7,2.4,3.3,3.7,5.6,3c1.2-0.4,2.2-1.2,3-2.2c0.2-0.2,0.3-0.3,0.5-0.2l0.4,0.3c0.1,0.1,0.2,0.3,0,0.5c-0.9,1.2-2.1,2.1-3.6,2.6
	c-3.2,1-6.1-0.8-7.1-4C124.1,12.8,125.3,9.6,128.6,8.5 M134.1,12.3c-0.5-2.1-2.7-3.4-4.8-2.9c-0.1,0-0.2,0.1-0.3,0.1
	c-2.3,0.7-3.6,3.1-2.9,5.4L134.1,12.3z"/>
<path id="Trazado_30" class="st2" d="M138.2,18.5l0.2-0.4c0.1-0.2,0.3-0.2,0.5-0.1c0,0,0,0,0.1,0c0.9,0.7,2,1.1,3.1,1.1
	c1.7,0,2.9-0.8,2.9-2.1c0-1.3-1.4-1.9-3.3-2.7c-2-0.7-3.4-1.5-3.4-3.3c0-1.2,1-2.9,3.7-2.9c1.1,0,2.3,0.3,3.2,0.9
	c0.2,0.1,0.2,0.3,0.1,0.5l-0.1,0.3c-0.1,0.2-0.3,0.2-0.5,0.1c-0.8-0.4-1.8-0.7-2.7-0.7c-1.8,0-2.6,1-2.6,1.9c0,1.1,1.1,1.8,2.8,2.4
	c2.1,0.8,3.9,1.4,3.9,3.6c0,1.7-1.6,3.1-3.9,3.1c-1.4,0-2.7-0.4-3.8-1.3C138.1,18.9,138.1,18.7,138.2,18.5"/>
<text transform="matrix(1 0 0 1 152.0509 20.2183)" class="st0 st3 st4">_blog</text>
</svg>
