<svg id="logo" xmlns="http://www.w3.org/2000/svg" width="146" height="29.054" viewBox="0 0 146 29.054">
  <rect id="Rectángulo_70" data-name="Rectángulo 70" width="29.96" height="29.054" rx="5.239" fill="#4af48f"/>
  <g id="Grupo_67" data-name="Grupo 67" transform="translate(5.476 4.778)">
    <g id="Grupo_65" data-name="Grupo 65" transform="translate(0 0)">
      <path id="Trazado_19" data-name="Trazado 19" d="M228.348,645.02v-.039c0,2.748-1.424,3.765-3.281,3.765a4.667,4.667,0,0,1-2.951-1.246c-.28-.255-.585-.255-.763.025l-.509.737a.559.559,0,0,0,.128.687,6.638,6.638,0,0,0,4.1,1.526c2.671,0,5.139-1.476,5.139-5.494v-1.217Z" transform="translate(-219.438 -630.978)" fill="#080316"/>
      <path id="Trazado_20" data-name="Trazado 20" d="M222.9,562.716a.606.606,0,0,0-.585-.56h-.356c-.305,0-.432.178-.56.407l-.178.534a5.81,5.81,0,0,0-3.51-1.2c-3.2,0-5.494,2.773-5.494,6.131,0,3.434,2.34,6.156,5.571,6.156a5.684,5.684,0,0,0,3.256-1.043l1.857-1.2Zm-1.882,8.775a5.719,5.719,0,0,1-2.976.967c-2.238,0-3.917-1.908-3.917-4.451,0-2.29,1.45-4.375,3.79-4.375a4.374,4.374,0,0,1,3.1,1.424Z" transform="translate(-212.217 -561.901)" fill="#080316"/>
    </g>
    <g id="Grupo_66" data-name="Grupo 66" transform="translate(13.402 2.639)">
      <path id="Trazado_21" data-name="Trazado 21" d="M298.18,585.866a.351.351,0,0,1,.174-.312l3.479-2.613-3.6-2.506a.358.358,0,0,1-.189-.321l-.022-.959a.323.323,0,0,1,.5-.3l5.542,3.694a.422.422,0,0,1,.188.3l0,.09a.421.421,0,0,1-.174.312l-5.37,3.852a.323.323,0,0,1-.513-.279Z" transform="translate(-298.026 -578.8)" fill="#080316"/>
    </g>
  </g>
  <path id="Trazado_22" data-name="Trazado 22" d="M449.538,595.7c0,3.925-2.41,5.366-5.018,5.366a6.482,6.482,0,0,1-4-1.491.546.546,0,0,1-.125-.671l.5-.72c.174-.273.472-.273.745-.024a4.56,4.56,0,0,0,2.882,1.217c1.813,0,3.2-.993,3.2-3.677v-.82a5.551,5.551,0,0,1-3.18,1.019c-3.155,0-5.441-2.658-5.441-6.012,0-3.279,2.236-5.987,5.366-5.987a5.675,5.675,0,0,1,3.428,1.167l.174-.521c.125-.223.249-.4.547-.4h.348a.592.592,0,0,1,.572.546Zm-4.745-1.491a5.585,5.585,0,0,0,2.907-.944v-6.285a4.272,4.272,0,0,0-3.031-1.391c-2.286,0-3.7,2.037-3.7,4.273,0,2.484,1.64,4.347,3.826,4.347" transform="translate(-398.68 -575.85)" fill="#fff"/>
  <path id="Trazado_23" data-name="Trazado 23" d="M531.677,583.9a5.045,5.045,0,0,1,5.193,5.217,6.476,6.476,0,0,1-.05.7.535.535,0,0,1-.521.5h-8.347a4.04,4.04,0,0,0,3.751,3.925,5.33,5.33,0,0,0,3.106-.944c.4-.273.572-.372.869.075l.3.422c.224.348.323.471-.1.795a7.052,7.052,0,0,1-4.2,1.317c-3.478,0-5.565-2.733-5.565-6.012,0-3.23,2.087-5.987,5.565-5.987m3.354,4.944a3.358,3.358,0,0,0-3.354-3.28,3.757,3.757,0,0,0-3.7,3.28Z" transform="translate(-472.262 -575.684)" fill="#fff"/>
  <path id="Trazado_24" data-name="Trazado 24" d="M615.186,583.9a5.045,5.045,0,0,1,5.193,5.217,6.621,6.621,0,0,1-.05.7.536.536,0,0,1-.521.5H611.46a4.04,4.04,0,0,0,3.752,3.925,5.331,5.331,0,0,0,3.106-.944c.4-.273.571-.372.869.075l.3.422c.223.348.323.471-.1.795a7.053,7.053,0,0,1-4.2,1.317c-3.478,0-5.565-2.733-5.565-6.012,0-3.23,2.088-5.987,5.565-5.987m3.354,4.944a3.357,3.357,0,0,0-3.354-3.28,3.757,3.757,0,0,0-3.7,3.28Z" transform="translate(-542.884 -575.684)" fill="#fff"/>
  <path id="Trazado_25" data-name="Trazado 25" d="M697.746,548.184a.569.569,0,0,1,.547-.546h.745a.588.588,0,0,1,.547.546V557.9l4.77-4a1.09,1.09,0,0,1,.7-.348h1.391a.4.4,0,0,1,.273.7l-5.291,4.4,5.689,5.663a.412.412,0,0,1-.3.721H705.4a1,1,0,0,1-.57-.224l-5.242-5.54v5.217a.569.569,0,0,1-.547.547h-.745a.552.552,0,0,1-.547-.547Z" transform="translate(-617.401 -544.924)" fill="#fff"/>
  <path id="Trazado_26" data-name="Trazado 26" d="M785.767,585.917c-.124-.223-.1-.422.149-.422h.572a.372.372,0,0,1,.372.273l4.2,9.688h.049l4.273-9.688a.374.374,0,0,1,.373-.273h.571c.249,0,.3.2.149.422l-4.969,11.056c-.1.174-.2.273-.348.273h-.124c-.149,0-.249-.075-.348-.273Z" transform="translate(-691.787 -577.028)" fill="#fff"/>
  <path id="Trazado_27" data-name="Trazado 27" d="M868.558,553.854a.975.975,0,0,1,.993-.969.957.957,0,1,1,0,1.913.971.971,0,0,1-.993-.945m.472,4.5a.366.366,0,0,1,.373-.372h.347a.4.4,0,0,1,.373.372v10.732a.33.33,0,0,1-.373.373h-.4c-.224,0-.323-.174-.323-.373Z" transform="translate(-761.785 -549.353)" fill="#fff"/>
  <path id="Trazado_28" data-name="Trazado 28" d="M910.346,565.3a5.6,5.6,0,0,1-4.024-1.665l-.074,1.018a.391.391,0,0,1-.423.373h-.149a.4.4,0,0,1-.373-.373V548.01a.4.4,0,0,1,.348-.372h.373a.351.351,0,0,1,.372.372v6.41a6.26,6.26,0,0,1,3.628-1.119c3.255,0,5.54,2.683,5.54,5.988,0,3.354-2.236,6.012-5.218,6.012m-.472-10.931a5.514,5.514,0,0,0-3.479,1.292V562.3a4.756,4.756,0,0,0,3.876,1.938c2.41,0,4.2-2.285,4.2-4.944a4.71,4.71,0,0,0-4.6-4.919" transform="translate(-792.932 -544.924)" fill="#fff"/>
  <path id="Trazado_29" data-name="Trazado 29" d="M990.414,584.321a5.033,5.033,0,0,1,6.5,3.374c.138.425.345,1.064-.056,1.194l-8.72,2.831a4.539,4.539,0,0,0,5.648,3,6.264,6.264,0,0,0,3-2.176c.19-.219.3-.28.473-.153l.39.316c.125.065.163.261.02.464a7.348,7.348,0,0,1-3.556,2.565c-3.213,1.043-6.1-.841-7.133-4.032-1-3.1.214-6.339,3.428-7.382m5.493,3.807a3.99,3.99,0,0,0-5.163-2.791,4.381,4.381,0,0,0-2.895,5.406Z" transform="translate(-861.85 -575.802)" fill="#fff"/>
  <path id="Trazado_30" data-name="Trazado 30" d="M1072.1,594.211l.225-.4a.337.337,0,0,1,.521-.05,5.213,5.213,0,0,0,3.131,1.118c1.74,0,2.857-.844,2.857-2.062,0-1.316-1.391-1.938-3.328-2.658-2.013-.721-3.429-1.515-3.429-3.329,0-1.242,1.043-2.932,3.676-2.932a6.314,6.314,0,0,1,3.23.87.4.4,0,0,1,.149.521l-.149.273c-.1.2-.3.2-.5.1a6.542,6.542,0,0,0-2.734-.745c-1.813,0-2.583,1.018-2.583,1.888,0,1.143,1.142,1.764,2.831,2.386,2.137.794,3.925,1.44,3.925,3.627,0,1.739-1.639,3.081-3.95,3.081a5.934,5.934,0,0,1-3.751-1.267.319.319,0,0,1-.125-.423" transform="translate(-933.925 -575.681)" fill="#fff"/>
</svg>
