<?xml version="1.0" encoding="utf-8"?>
<!-- Generator: Adobe Illustrator 25.4.1, SVG Export Plug-In . SVG Version: 6.00 Build 0)  -->
<svg version="1.1" id="logo" xmlns="http://www.w3.org/2000/svg" xmlns:xlink="http://www.w3.org/1999/xlink" x="0px" y="0px"
	 viewBox="0 0 30 29.1" style="enable-background:new 0 0 30 29.1;" xml:space="preserve">
<style type="text/css">
	.st0{fill:#4AF48F;}
	.st1{fill:#080316;}
</style>
<path id="Rectángulo_70" class="st0" d="M5.2,0h19.5C27.6,0,30,2.3,30,5.2v18.6c0,2.9-2.3,5.2-5.2,5.2H5.2c-2.9,0-5.2-2.3-5.2-5.2
	V5.2C0,2.3,2.3,0,5.2,0z"/>
<g id="Grupo_67" transform="translate(5.476 4.778)">
	<g id="Grupo_65" transform="translate(0 0)">
		<path id="Trazado_19" class="st1" d="M8.9,14L8.9,14c0,2.7-1.4,3.7-3.3,3.7c-1.1-0.1-2.1-0.5-3-1.2c-0.3-0.3-0.6-0.3-0.8,0
			l-0.5,0.7c-0.1,0.2-0.1,0.5,0.1,0.7c1.2,1,2.6,1.5,4.1,1.5c2.7,0,5.1-1.5,5.1-5.5v-1.2L8.9,14z"/>
		<path id="Trazado_20" class="st1" d="M10.7,0.8c0-0.3-0.3-0.6-0.6-0.6H9.7c-0.3,0-0.4,0.2-0.6,0.4L9,1.2C8,0.4,6.8,0,5.5,0
			C2.3,0,0,2.8,0,6.1c0,3.4,2.3,6.2,5.6,6.2c1.2,0,2.3-0.4,3.3-1l1.9-1.2L10.7,0.8z M8.8,9.6c-0.9,0.6-1.9,0.9-3,1
			c-2.2,0-3.9-1.9-3.9-4.5c0-2.3,1.4-4.4,3.8-4.4c1.2,0,2.3,0.5,3.1,1.4L8.8,9.6z"/>
	</g>
	<g id="Grupo_66" transform="translate(13.402 2.639)">
		<path id="Trazado_21" class="st1" d="M0.2,7.1c0-0.1,0.1-0.2,0.2-0.3l3.5-2.6L0.2,1.6C0.1,1.6,0,1.4,0,1.3l0-1C0,0.2,0.1,0,0.3,0
			c0.1,0,0.1,0,0.2,0.1L6,3.7C6.1,3.8,6.2,3.9,6.2,4v0.1c0,0.1-0.1,0.2-0.2,0.3L0.7,8.3C0.5,8.4,0.3,8.4,0.2,8.2
			c0-0.1-0.1-0.1-0.1-0.2L0.2,7.1z"/>
	</g>
</g>
</svg>
